<svg xmlns="http://www.w3.org/2000/svg" width="20" height="21" viewBox="0 0 20 21">
    <path fill="#333" fill-rule="nonzero" d="M10 .857c5.525 0 10 4.476 10 10 0 5.491-4.453 10-10 10-5.536 0-10-4.498-10-10 0-5.524 4.475-10 10-10zm6.909 15.078a8.616 8.616 0 0 0 1.662-5.078c0-4.72-3.85-8.571-8.571-8.571s-8.571 3.85-8.571 8.571c0 1.897.625 3.65 1.663 5.078.401-1.998 1.372-3.65 3.415-3.65a4.983 4.983 0 0 0 6.986 0c2.043 0 3.014 1.652 3.416 3.65zm-2.623-7.22a4.287 4.287 0 0 1-8.572 0 4.287 4.287 0 0 1 8.572 0z" opacity=".3"/>
</svg>
